<svg width="45" height="45" viewBox="0 0 45 45" fill="none" xmlns="http://www.w3.org/2000/svg">
<path d="M20.2716 13.4351C20.2716 12.2019 21.2776 11.2825 22.4892 11.2825C23.7224 11.2825 24.7284 12.2019 24.7284 13.4351C24.7284 14.6683 23.7224 15.5986 22.4892 15.5986C21.2776 15.5986 20.2716 14.6683 20.2716 13.4351ZM20.4231 17.2969H24.5553V32.8846H20.4231V17.2969Z" fill="#0D2750"/>
<path d="M22.5 3.02885C27.7031 3.02885 32.5925 5.05168 36.2704 8.72957C39.9483 12.4075 41.9712 17.2969 41.9712 22.5C41.9712 27.7031 39.9483 32.5925 36.2704 36.2704C32.5925 39.9483 27.7031 41.9712 22.5 41.9712C17.2969 41.9712 12.4075 39.9483 8.72957 36.2704C5.05168 32.5925 3.02885 27.7031 3.02885 22.5C3.02885 17.2969 5.05168 12.4075 8.72957 8.72957C12.4075 5.05168 17.2969 3.02885 22.5 3.02885ZM22.5 0C10.0709 0 0 10.0709 0 22.5C0 34.9291 10.0709 45 22.5 45C34.9291 45 45 34.9291 45 22.5C45 10.0709 34.9291 0 22.5 0Z" fill="#0D2750"/>
</svg>
